<?xml version="1.0" encoding="utf-8" standalone="no"?>
<!DOCTYPE svg PUBLIC "-//W3C//DTD SVG 1.1//EN" "http://www.w3.org/Graphics/SVG/1.1/DTD/svg11.dtd">
<svg height="512pt" preserveAspectRatio="xMidYMid meet" viewBox="0 0 512 512" width="512pt" xmlns="http://www.w3.org/2000/svg"><g transform="matrix(.1 0 0 -.1 0 512)"><path d="m2315 5004c-16-2-82-11-145-20-645-88-1254-476-1622-1032-191-290-316-615-363-944-7-48-7-48 22-48 47 0 590 67 853 106 364 53 424 66 487 110 134 92 255 310 403 724 176 492 214 579 288 662 50 55 108 87 157 88 55 0 149-30 215-70 36-21 142-102 235-180 208-173 271-219 390-282 238-125 546-182 1109-204l179-7-43 64c-224 334-545 613-915 795-337 165-622 233-1005 239-118 2-228 1-245-1z"/><path d="m2365 4290c-35-55-99-214-185-460-176-501-290-722-449-872-112-106-173-131-431-173-293-47-1050-145-1126-145-16 0-16-14-11-177 24-754 412-1449 1042-1868 400-266 830-395 1315-395 358 0 689 72 1004 219l99 46-121 126c-174 181-199 196-482 288-47 15-96 34-110 41-75 40-165 138-374 407-150 193-228 268-344 327-49 26-99 57-111 70-22 23-22 25-6 49 9 14 34 38 57 53 34 24 52 29 102 29 76 0 112-17 271-131 66-48 145-98 175-111 123-56 251-18 307 90 27 53 43 160 43 297 0 180-11 270-70 560-93 458-103 600-40 600 16 0 19 5 14 28-6 29-5 29 233 140 319 148 332 154 528 232 129 52 163 70 145 74-14 2-77 12-140 21-388 56-628 172-973 469-173 149-259 206-311 206-19 0-32-11-51-40z"/><path d="m4515 3584c-514-50-897-142-1326-317-220-90-245-103-227-113 26-15 43-51 164-329 160-370 200-467 220-543l18-65 65 7c82 7 110-8 165-87 40-58 84-87 132-87 32 0 109-56 183-135 61-64 66-77 75-175 36-385 105-607 243-778l19-23 83 98c246 290 431 674 505 1043 72 360 61 793-30 1155-38 151-122 367-142 364-4-1-70-7-147-15z"/></g></svg>